<?xml version="1.0" encoding="utf-8"?>
<!-- Generator: Adobe Illustrator 24.0.2, SVG Export Plug-In . SVG Version: 6.00 Build 0)  -->
<svg version="1.1" id="Layer_1" xmlns="http://www.w3.org/2000/svg" xmlns:xlink="http://www.w3.org/1999/xlink" x="0px" y="0px"
	 viewBox="0 0 1024 276.7" style="enable-background:new 0 0 1024 276.7;" xml:space="preserve">
<style type="text/css">
	.st0{fill:#D81F26;}
	.st1{fill:#D82027;}
</style>
<path class="st0" d="M140.8,258.9c-15.4,2.7-31.1,3.5-47.3,5.7L44.1,119.7v151.1c-15.4,1.6-29.5,3.8-44.1,5.9V0h41.1l56.2,157V0
	h43.5L140.8,258.9L140.8,258.9z M463.2,43.2h-44.9v198.9c-14.6,0-29.2,0-43.2,0.5V43.2h-44.9V0h133C463.2,0,463.2,43.2,463.2,43.2z
	 M533.5,98.4h59.2v43.2h-59.2v98.1h-42.4V0h120.8v43.2h-78.4C533.5,43.2,533.5,98.4,533.5,98.4z M682.1,201.9
	c24.6,0.5,49.5,2.4,73.5,3.8v42.7c-38.6-2.4-77.3-4.9-116.8-5.7V0h43.2V201.9L682.1,201.9z M792.1,251.3c13.8,0.8,28.4,1.6,42.4,3.2
	V0h-42.4V251.3z M1024,0l-54.9,131.6l54.9,145.1c-16.2-2.2-32.4-5.1-48.6-7.8l-31.1-80l-31.6,73.5c-15.7-2.7-30.8-3.5-46.5-5.7
	L921.8,130L871.6,0h46.5l28.4,72.7L976.7,0L1024,0L1024,0z"/>
<g>
	<path class="st1" d="M184.1,67.6c2.2-15.8,5.7-28.7,10.7-38.7c5-10,11.6-17.3,19.7-21.9c8.2-4.6,18.2-6.9,30-6.9
		c11.8,0,21.8,2.3,30,6.9c8.2,4.6,14.7,11.9,19.7,21.9c5,10,8.6,22.9,10.7,38.7c2.2,15.8,3.2,35,3.2,57.4c0,22.5-1.1,45.5-3.2,61.3
		c-2.2,15.8-5.7,28.8-10.7,38.7c-5,10-11.6,17.1-19.7,21.4c-6.9,3.6-17.5,3.6-26.8,4.5c-14.7,1.4-25-0.2-33.2-4.5
		c-8.2-4.3-14.7-11.4-19.7-21.4c-5-10-8.6-22.9-10.7-38.7c-2.2-15.8-3.2-38.9-3.2-61.3C180.9,102.5,181.9,83.4,184.1,67.6z
		 M229.3,169.2c0.3,10.7,1,19.2,2.1,25.4c1.1,6.3,2.7,10.7,4.7,13.1c2.1,2.5,4.9,3.7,8.4,3.7s6.3-1.2,8.4-3.7
		c2.1-2.5,3.7-6.8,4.7-13.1c1.1-6.3,1.8-14.8,2.1-25.4c0.3-10.7,0.5-28,0.5-44.2s-0.2-29.6-0.5-40.3c-0.3-10.7-1-19.1-2.1-25.4
		c-1.1-6.3-2.7-10.7-4.7-13.1c-2.1-2.5-4.9-3.7-8.4-3.7s-6.3,1.2-8.4,3.7c-2.1,2.5-3.7,6.9-4.7,13.1c-1.1,6.3-1.8,14.8-2.1,25.4
		c-0.3,10.7-0.5,24.1-0.5,40.3S229,158.5,229.3,169.2z"/>
</g>
</svg>
